<?xml version="1.0" standalone="no"?>
<!DOCTYPE svg PUBLIC "-//W3C//DTD SVG 20010904//EN"
 "http://www.w3.org/TR/2001/REC-SVG-20010904/DTD/svg10.dtd">
<svg version="1.0" xmlns="http://www.w3.org/2000/svg"
 width="465.000000pt" height="465.000000pt" viewBox="0 0 465.000000 465.000000"
 preserveAspectRatio="xMidYMid meet">
<metadata>
Created by potrace 1.11, written by Peter Selinger 2001-2013
</metadata>
<g transform="translate(0.000000,465.000000) scale(0.100000,-0.100000)"
fill="#000000" stroke="none">
<path d="M846 2841 c-132 -54 -211 -160 -220 -298 -2 -28 -7 -56 -10 -61 -4
-6 -2 -13 2 -16 13 -8 2 -56 -12 -56 -6 0 -3 -5 7 -11 12 -7 15 -15 9 -27 -4
-9 -7 -31 -6 -49 2 -22 -3 -33 -14 -36 -15 -4 -14 -5 1 -6 10 0 15 -5 12 -11
-3 -5 0 -10 7 -11 7 0 4 -4 -7 -9 -11 -5 -14 -9 -7 -9 7 -1 10 -5 7 -11 -3 -5
-2 -10 3 -10 6 0 7 -14 1 -37 -4 -21 -5 -40 -1 -43 11 -8 13 -32 2 -25 -5 3
-10 1 -10 -4 0 -6 5 -11 10 -11 6 0 10 -7 10 -16 0 -8 -4 -13 -8 -10 -4 2 -9
-4 -9 -15 -1 -10 3 -19 8 -19 6 0 7 5 4 10 -10 16 1 11 16 -7 12 -14 12 -16 0
-8 -11 6 -13 4 -7 -10 5 -14 4 -16 -7 -7 -10 9 -14 8 -14 -3 0 -14 11 -19 30
-16 5 1 6 -3 2 -9 -3 -6 -10 -8 -15 -5 -4 3 -7 -2 -6 -11 1 -8 8 -19 15 -24
11 -6 11 -9 0 -13 -10 -4 -10 -6 -1 -6 6 -1 12 -10 12 -20 0 -28 10 -51 23
-51 7 0 7 4 -1 12 -7 7 -12 16 -12 22 0 5 6 1 14 -10 8 -11 11 -23 6 -28 -5
-5 -2 -19 6 -32 11 -16 22 -21 40 -18 22 4 23 2 12 -10 -7 -7 -16 -12 -19 -10
-3 2 -6 -4 -6 -12 0 -10 4 -11 10 -5 7 7 15 5 24 -7 13 -15 13 -15 3 5 -9 19
-8 22 5 17 8 -4 15 -14 15 -24 0 -23 16 -34 26 -19 4 8 3 9 -4 5 -7 -4 -12 -3
-12 2 0 6 7 12 15 16 8 3 14 2 14 -2 -1 -4 -1 -16 0 -27 1 -17 3 -18 11 -5 6
10 10 11 10 3 0 -7 5 -13 11 -13 5 0 8 4 5 8 -3 5 1 9 9 9 8 0 12 -3 10 -7 -2
-3 0 -12 5 -20 7 -12 12 -12 22 -2 9 9 9 12 -2 12 -7 0 -11 3 -7 6 3 3 23 -7
43 -22 21 -16 35 -23 30 -16 -9 15 6 16 22 0 9 -9 12 -9 12 1 0 7 6 11 15 8 8
-4 17 -1 21 5 4 6 3 8 -4 4 -6 -3 -14 -1 -18 5 -4 8 -3 9 4 5 7 -4 12 -1 12 6
0 9 3 10 8 2 4 -6 21 -11 38 -10 26 1 30 5 28 24 l-2 22 31 -22 c21 -14 27
-16 19 -6 -16 20 -10 34 21 49 21 10 21 10 -1 -8 -21 -18 -22 -19 -3 -19 11 0
18 4 15 7 -2 4 1 11 7 14 5 4 8 13 5 21 -3 8 0 11 10 7 17 -6 19 13 2 21 -7 2
-4 4 7 3 11 -2 27 -7 35 -12 12 -7 13 -6 3 6 -15 19 -13 57 4 64 10 3 11 0 3
-15 -7 -13 -7 -21 0 -25 6 -4 9 -3 8 2 -3 13 14 57 26 66 7 6 4 7 -6 3 -10 -3
-20 0 -24 6 -5 7 -2 8 6 3 10 -6 12 -4 7 9 -5 13 -3 15 11 7 15 -8 17 -4 16
37 -1 25 -6 48 -13 50 -6 2 -11 -1 -11 -8 0 -6 5 -8 12 -4 7 4 8 3 4 -5 -4 -6
-12 -9 -17 -6 -10 7 -8 20 14 100 21 81 23 80 -75 83 l-87 3 -7 -36 c-13 -71
-80 -125 -154 -125 -54 0 -94 22 -130 72 -24 32 -27 44 -18 55 8 10 8 17 0 25
-15 15 -16 31 -1 22 7 -4 6 3 -2 17 -15 28 -15 29 3 40 8 6 9 9 1 9 -13 0 -12
18 1 39 6 9 5 12 0 8 -6 -3 -10 14 -10 43 0 34 4 46 13 43 8 -3 11 2 8 16 -2
11 1 23 6 26 5 4 6 11 3 17 -5 8 -1 9 11 4 15 -5 16 -4 5 9 -7 8 -17 12 -23 8
-6 -3 -7 -1 -3 5 5 9 13 9 29 0 20 -10 21 -10 8 5 -7 10 -11 18 -7 18 3 1 11
2 16 3 6 0 15 8 20 16 7 12 12 11 30 -5 20 -18 20 -18 14 -1 -5 14 -3 17 7 14
8 -3 13 -14 11 -24 -2 -15 -1 -16 7 -4 5 8 8 17 5 21 -2 4 1 11 7 15 8 4 9 3
5 -4 -9 -15 6 -16 20 -2 7 7 11 6 11 -4 0 -8 -4 -13 -8 -10 -4 2 -10 0 -13 -5
-8 -13 19 -8 37 8 13 10 15 9 10 -9 -5 -18 -2 -20 21 -16 15 3 24 1 21 -4 -3
-5 9 -23 27 -41 18 -17 27 -28 19 -24 -10 6 -12 2 -7 -16 6 -20 5 -21 -4 -6
-6 9 -8 22 -4 29 5 7 3 8 -6 3 -8 -5 -11 -4 -6 3 3 6 2 13 -3 17 -13 7 -6 -27
10 -57 7 -13 12 -27 10 -33 -1 -5 1 -7 5 -3 4 4 13 0 21 -10 12 -15 13 -14 2
8 -12 25 -12 25 9 7 15 -14 22 -15 28 -6 4 8 3 10 -4 5 -8 -5 -10 -2 -6 9 6
14 8 14 19 -2 7 -10 11 -22 7 -28 -3 -5 2 -4 11 4 9 7 17 10 17 6 0 -4 7 -2
15 5 8 7 12 16 9 21 -3 5 6 4 21 -3 20 -9 28 -9 38 1 9 10 8 12 -7 9 -10 -1
-21 3 -23 10 -3 8 1 10 13 5 11 -4 15 -3 11 4 -4 6 -1 14 5 17 7 3 5 4 -6 3
-13 -1 -20 5 -22 21 -2 13 0 21 5 17 5 -3 13 0 17 6 4 7 3 10 -2 6 -5 -3 -18
1 -29 9 -16 12 -17 16 -5 27 10 9 12 9 6 0 -9 -17 8 -17 22 0 14 16 0 91 -28
150 -28 59 -92 122 -159 154 -73 36 -185 42 -255 14z m-21 -380 c3 -5 0 -13
-6 -17 -7 -4 -9 -3 -5 4 3 5 0 13 -6 15 -9 4 -10 6 -1 6 6 1 14 -3 18 -8z
m325 -50 c0 -5 -7 -12 -16 -15 -14 -5 -15 -4 -4 9 14 17 20 19 20 6z m73 -24
c3 -8 -1 -14 -8 -14 -7 0 -11 6 -8 14 3 7 6 13 8 13 2 0 5 -6 8 -13z m-511
-552 c3 0 10 -4 15 -9 4 -5 3 -6 -4 -3 -6 4 -13 3 -15 -3 -2 -6 -9 -1 -16 11
-11 17 -11 20 0 13 7 -5 16 -9 20 -9z m238 -125 c0 -5 -2 -10 -4 -10 -3 0 -8
5 -11 10 -3 6 -1 10 4 10 6 0 11 -4 11 -10z m40 -2 c0 -4 -4 -8 -9 -8 -6 0
-12 4 -15 8 -3 5 1 9 9 9 8 0 15 -4 15 -9z"/>
<path d="M1811 2849 c-94 -18 -196 -106 -237 -205 -9 -21 -18 -81 -21 -134 -3
-52 -11 -98 -17 -102 -7 -5 -4 -8 7 -8 10 0 15 -5 12 -10 -4 -6 -12 -7 -18 -3
-9 5 -9 3 -1 -8 16 -21 18 -82 2 -73 -10 6 -10 4 -2 -7 15 -20 16 -71 2 -81
-9 -5 -7 -8 6 -8 20 0 20 0 0 -15 -14 -11 -15 -14 -4 -15 13 0 13 -1 0 -10
-13 -8 -12 -10 3 -10 10 0 15 -5 12 -10 -4 -6 -12 -7 -18 -3 -9 5 -9 3 0 -8
13 -16 12 -36 -1 -58 -6 -9 -5 -12 2 -7 6 3 13 2 16 -3 3 -5 -2 -12 -11 -15
-12 -5 -14 -9 -5 -18 16 -16 15 -31 0 -22 -10 6 -10 4 0 -7 14 -15 17 -43 3
-35 -10 6 -9 -8 2 -34 8 -18 5 -39 -7 -59 -6 -10 -5 -12 2 -7 8 5 12 0 12 -13
0 -12 5 -21 11 -21 6 0 1 -8 -11 -18 -21 -17 -21 -19 -4 -32 10 -8 15 -10 11
-4 -3 6 0 11 8 11 13 0 12 -3 -1 -18 -9 -10 -22 -16 -28 -13 -6 3 -1 -3 12
-14 22 -20 29 -34 14 -29 -4 1 -8 -2 -10 -7 -1 -6 3 -11 10 -12 7 -1 22 -5 33
-9 l20 -8 -20 17 c-11 10 -13 14 -5 10 22 -12 84 -12 93 0 5 6 6 0 3 -14 -3
-14 -3 -19 0 -12 3 6 11 9 17 5 6 -4 8 0 4 10 -3 9 -1 19 5 23 6 4 8 3 5 -3
-3 -5 0 -10 8 -10 10 0 11 6 4 24 -7 18 -5 23 8 23 9 0 13 3 9 8 -4 4 -12 7
-17 7 -5 0 -9 3 -9 8 0 4 0 14 0 23 0 9 5 12 13 8 9 -6 9 -4 -1 8 -7 9 -9 19
-5 21 5 3 8 40 7 81 -1 42 2 79 7 82 5 3 6 11 2 17 -20 33 7 48 28 16 8 -10 9
-8 4 8 -5 19 -3 22 11 16 13 -5 15 -3 10 8 -4 8 2 3 14 -11 12 -14 20 -18 17
-9 -4 12 1 15 19 13 13 -1 24 3 24 9 0 8 3 8 8 2 11 -15 46 -19 36 -4 -5 9 -3
9 7 3 19 -12 69 -13 69 -1 0 5 6 4 14 -2 11 -9 15 -9 20 1 3 7 3 3 0 -10 -3
-14 0 -24 8 -27 15 -6 18 -71 5 -92 -4 -6 -3 -14 3 -18 7 -4 7 -12 0 -26 -8
-14 -7 -19 2 -19 9 0 9 -3 -2 -10 -12 -8 -12 -10 -1 -10 11 0 11 -3 0 -17 -12
-15 -12 -16 4 -10 12 4 16 3 11 -4 -4 -6 0 -15 7 -20 11 -7 11 -9 1 -9 -7 0
-11 -4 -7 -9 3 -5 0 -13 -6 -17 -8 -5 -9 -3 -4 7 5 8 4 10 0 6 -13 -11 -15
-38 -3 -30 7 4 9 -2 6 -15 -4 -12 -2 -22 4 -22 5 0 6 -6 2 -12 -5 -8 0 -7 11
2 10 8 16 11 13 5 -3 -5 1 -17 10 -25 14 -13 15 -12 9 3 -3 9 -3 16 1 16 4 -1
9 0 12 1 16 6 39 7 39 2 -3 -17 3 -20 28 -13 14 4 27 13 29 21 2 8 6 26 9 40
16 57 18 83 7 76 -8 -5 -8 2 0 24 5 17 8 34 5 37 -4 3 -2 15 4 26 7 12 7 17 1
13 -11 -7 -8 56 4 75 4 7 3 9 -4 5 -6 -4 -10 1 -9 13 0 11 4 18 8 15 4 -2 10
0 14 6 3 5 -1 10 -10 10 -12 0 -14 4 -6 18 7 13 6 23 -1 30 -9 9 -7 12 7 12
19 1 19 1 3 11 -10 5 -18 14 -18 19 0 5 8 7 18 3 14 -5 13 -3 -3 10 -14 12
-16 16 -5 17 11 0 11 3 2 12 -14 14 -16 32 -3 23 5 -3 13 0 17 6 4 7 3 9 -4 5
-6 -3 -13 -2 -17 4 -3 5 -1 10 6 10 10 0 10 3 1 12 -17 17 -15 28 6 21 14 -5
13 -3 -3 10 -14 12 -16 16 -5 17 11 0 11 3 2 12 -14 14 -16 32 -3 23 5 -3 13
0 17 6 4 7 3 9 -4 5 -6 -3 -13 -2 -17 4 -3 5 -1 10 6 10 10 0 10 3 1 12 -16
16 -15 31 1 22 9 -6 9 -4 -1 8 -9 11 -10 18 -2 23 6 3 7 12 3 18 -4 6 -8 39
-10 72 -8 133 -54 220 -152 286 -80 54 -158 68 -260 48z m101 -313 c7 4 8 2 4
-5 -4 -6 -12 -9 -17 -6 -5 3 -6 -1 -2 -10 4 -12 8 -13 13 -5 5 8 13 9 21 4 18
-11 40 -14 34 -5 -2 4 2 8 10 8 10 0 11 -6 4 -24 -6 -16 -5 -22 1 -18 6 3 20
3 31 0 16 -5 20 -13 16 -32 -3 -18 -1 -23 11 -18 12 4 13 3 2 -10 -10 -12 -10
-15 0 -15 8 0 10 -3 6 -7 -11 -11 -269 -11 -283 0 -9 6 -13 5 -13 -4 0 -10 -3
-10 -12 -1 -14 14 8 46 25 35 6 -3 7 -1 3 5 -4 6 -14 8 -22 5 -14 -5 -15 -3
-4 18 17 32 25 39 16 14 -4 -11 -4 -16 0 -12 4 4 14 1 22 -6 13 -10 14 -9 2
10 -11 17 -11 26 -2 45 7 13 10 15 8 6 -3 -10 -1 -18 4 -18 6 0 10 8 10 18 0
14 2 15 10 2 8 -13 11 -13 22 -1 7 8 8 11 2 8 -6 -3 -11 0 -11 8 0 10 5 11 18
4 12 -6 20 -5 24 1 4 6 11 8 16 5 5 -4 9 0 10 7 0 10 2 10 6 0 2 -6 10 -9 15
-6z m38 -17 c0 -6 -4 -7 -10 -4 -5 3 -10 11 -10 16 0 6 5 7 10 4 6 -3 10 -11
10 -16z m256 -727 c-17 -16 -18 -16 -5 5 7 12 15 20 18 17 3 -2 -3 -12 -13
-22z"/>
<path d="M1998 2453 c7 -3 16 -2 19 1 4 3 -2 6 -13 5 -11 0 -14 -3 -6 -6z"/>
<path d="M2448 2770 c-2 -67 0 -90 10 -90 6 0 12 -4 12 -9 0 -5 -10 -6 -22 -3
-22 5 -22 5 -5 -13 15 -14 16 -20 5 -26 -8 -5 -8 -9 -2 -9 7 0 9 -10 6 -25 -2
-14 -8 -23 -11 -20 -4 2 -8 -2 -8 -10 0 -11 4 -12 14 -4 16 14 17 5 2 -24 -10
-21 -10 -21 8 1 18 22 33 21 33 -2 0 -6 -5 -4 -10 4 -7 12 -9 10 -7 -7 1 -15
5 -19 12 -13 7 6 17 5 25 -3 12 -10 12 -9 1 6 -7 9 -10 17 -6 17 5 0 17 -8 28
-17 19 -18 20 -17 8 5 -7 13 -10 26 -7 30 3 3 6 0 6 -7 0 -7 5 -9 12 -5 6 4 8
3 4 -4 -3 -6 -2 -13 4 -17 5 -3 10 1 10 9 0 9 5 16 11 16 5 0 8 -4 5 -9 -7
-11 14 -20 32 -14 10 4 10 8 0 21 -12 14 -11 14 9 1 19 -11 20 -15 8 -22 -8
-4 -15 -13 -15 -20 0 -8 3 -8 8 -2 15 22 27 12 27 -23 0 -20 -7 -43 -15 -50
-8 -8 -10 -11 -3 -8 19 10 22 -76 3 -92 -8 -8 -10 -11 -3 -8 18 9 21 -37 3
-52 -8 -8 -10 -11 -3 -8 19 10 22 -76 3 -92 -8 -8 -10 -11 -3 -8 18 9 21 -37
3 -52 -8 -8 -10 -11 -3 -8 7 4 12 -12 15 -49 2 -37 -1 -54 -8 -51 -6 2 -11 -2
-11 -10 0 -7 4 -11 8 -9 3 3 9 -7 12 -21 3 -19 1 -24 -11 -19 -11 4 -12 2 -5
-7 16 -21 22 -58 10 -58 -7 0 -5 -5 3 -10 11 -7 11 -10 2 -10 -7 0 -10 -5 -7
-10 4 -6 11 -7 17 -4 7 4 8 2 4 -5 -4 -6 -11 -9 -16 -6 -5 3 -12 0 -16 -6 -4
-8 -3 -9 4 -5 7 4 12 2 12 -4 0 -6 4 -9 9 -5 5 3 12 1 15 -4 3 -4 -2 -8 -12
-7 -9 0 -18 -3 -19 -9 -1 -5 5 -9 12 -7 9 2 13 -4 10 -18 -6 -31 4 -49 23 -43
15 4 15 3 2 -6 -12 -8 -19 -5 -34 12 l-18 22 16 -27 c11 -19 12 -28 4 -30 -7
-3 -5 -7 6 -11 10 -4 15 -3 11 3 -9 14 8 12 25 -2 12 -11 12 -10 1 5 -8 10 -9
17 -3 17 6 0 14 -5 17 -11 5 -6 12 -4 22 8 8 10 12 13 10 8 -3 -6 5 -15 18
-21 19 -9 25 -9 29 2 3 7 15 11 28 9 21 -4 22 -3 5 9 -16 13 -16 14 -1 20 9 4
14 9 11 13 -4 3 -1 13 6 21 9 13 9 14 0 8 -8 -4 -13 -2 -13 4 0 6 -6 8 -12 5
-7 -4 -2 2 11 13 18 14 21 21 11 27 -9 6 -11 4 -5 -5 5 -8 4 -11 -3 -6 -14 9
-7 44 15 70 17 19 17 20 0 7 -15 -12 -17 -11 -14 7 2 12 6 25 10 28 4 4 2 13
-3 19 -11 13 -9 42 3 61 3 6 3 14 -1 18 -11 12 -9 90 3 98 6 5 5 8 -4 8 -11 0
-11 3 0 17 8 9 9 14 4 11 -6 -4 -10 6 -10 22 -1 16 2 27 6 24 4 -2 11 0 14 6
4 6 3 10 -2 9 -20 -4 -24 2 -12 18 10 11 10 14 2 9 -7 -4 -13 -2 -13 3 0 6 6
11 13 11 7 0 8 3 2 8 -15 11 -17 74 -2 65 7 -4 6 0 -2 10 -11 14 -11 17 0 17
12 0 12 2 0 9 -9 6 -10 10 -2 16 9 5 9 11 -1 22 -15 19 -15 23 4 34 11 7 11 9
-1 9 -11 0 -11 3 0 17 8 9 9 14 3 10 -15 -9 -10 51 5 66 9 9 11 8 6 -4 -4 -10
0 -16 9 -16 8 0 13 4 10 9 -3 4 4 8 15 8 12 0 21 -6 21 -12 0 -9 3 -9 9 1 8
13 12 13 27 0 11 -9 15 -9 10 -1 -4 6 -3 12 3 12 5 0 12 -8 14 -17 4 -16 5
-16 6 -2 0 9 8 20 17 23 14 5 15 4 5 -8 -9 -11 -9 -16 1 -22 7 -4 10 -4 6 1
-10 10 11 37 22 30 5 -3 12 0 16 6 4 7 3 9 -3 6 -6 -4 -13 2 -16 14 -4 15 -2
18 7 10 9 -8 13 -7 13 4 0 8 -6 15 -12 15 -7 0 -11 14 -11 34 1 19 5 32 10 29
4 -3 5 4 1 16 -4 14 -2 21 7 21 8 0 9 3 2 8 -6 4 -10 38 -9 80 l1 72 -292 0
-293 0 -3 -90z m379 -1015 c0 -8 -4 -15 -9 -15 -10 0 -11 14 -1 23 9 10 10 9
10 -8z m-37 -47 c0 -4 -4 -8 -9 -8 -6 0 -12 4 -15 8 -3 5 1 9 9 9 8 0 15 -4
15 -9z"/>
<path d="M3263 2782 c0 -43 -2 -82 -5 -87 -3 -6 -4 -18 -3 -27 2 -10 -2 -18
-8 -18 -7 0 -4 -5 6 -11 12 -7 15 -15 8 -27 -4 -9 -6 -23 -3 -31 3 -9 0 -11
-8 -6 -9 6 -11 4 -4 -6 14 -23 15 -81 1 -74 -6 4 -3 -1 7 -9 11 -9 15 -16 9
-16 -6 0 -9 -15 -7 -36 3 -32 2 -34 -14 -23 -15 12 -15 12 1 -7 9 -11 17 -24
17 -27 0 -4 -8 -7 -17 -8 -15 0 -15 -2 2 -9 11 -5 16 -9 10 -9 -5 -1 -3 -6 5
-11 8 -5 10 -10 3 -10 -13 0 -12 -18 1 -39 7 -11 5 -13 -9 -7 -14 5 -16 4 -7
-7 7 -8 9 -17 5 -21 -4 -4 -1 -11 7 -16 8 -6 10 -10 4 -10 -7 0 -10 -19 -8
-50 1 -33 -2 -50 -9 -50 -7 0 -5 -5 3 -10 9 -5 15 -20 14 -37 -1 -15 -3 -35
-3 -43 -1 -13 -2 -13 -11 0 -6 9 -10 10 -10 3 0 -6 5 -15 10 -18 6 -4 8 -11 5
-16 -4 -5 0 -9 7 -9 8 0 9 -3 2 -8 -5 -4 -9 -27 -9 -52 2 -31 -3 -49 -14 -58
-14 -11 -14 -11 3 -5 16 5 18 3 14 -15 -4 -12 -2 -22 3 -22 5 0 9 -5 9 -11 0
-5 -4 -7 -10 -4 -6 4 -7 -1 -3 -12 6 -16 5 -17 -13 -3 -12 9 -10 4 6 -14 14
-16 19 -26 13 -22 -7 4 -13 2 -13 -5 0 -6 8 -9 20 -6 11 3 18 1 14 -4 -3 -5
-13 -9 -22 -9 -13 -1 -11 -5 8 -16 18 -11 20 -14 5 -10 -19 6 -19 5 -2 -8 19
-15 24 -31 5 -20 -7 5 -8 3 -3 -6 6 -10 10 -10 20 3 10 14 14 15 33 2 15 -11
23 -12 28 -4 4 8 3 9 -4 5 -18 -11 -14 0 5 15 11 10 14 10 9 2 -4 -8 -2 -13 6
-14 7 0 21 -2 30 -4 10 -2 20 1 24 6 3 5 10 6 16 3 7 -4 8 -2 4 5 -4 6 -11 9
-16 6 -5 -3 -12 -1 -15 5 -4 6 -3 10 2 9 19 -3 33 2 33 12 0 6 -7 9 -15 5 -8
-3 -15 -1 -15 4 0 9 22 15 43 11 5 -1 6 3 2 9 -3 6 -10 8 -14 6 -4 -3 -13 -1
-21 5 -13 7 -12 9 3 9 9 0 17 5 17 11 0 6 -7 9 -15 5 -8 -3 -15 -1 -15 4 0 6
7 10 15 10 8 0 15 5 15 10 0 6 -8 10 -17 10 -15 0 -16 2 -3 9 8 6 18 7 24 4 5
-4 6 -1 0 8 -12 20 -12 63 1 71 6 5 5 8 -2 8 -7 0 -13 7 -13 16 0 8 5 12 11 8
8 -4 8 -1 2 12 -13 28 -10 69 7 90 14 17 14 18 -2 6 -15 -12 -17 -11 -13 7 6
31 15 42 28 34 15 -9 77 -12 77 -3 0 3 -6 12 -12 20 -11 12 -10 12 3 2 9 -6
20 -8 24 -4 5 4 5 1 0 -7 -5 -9 -3 -12 6 -9 8 3 13 11 11 17 -2 9 4 8 20 -1
13 -7 27 -11 31 -10 5 1 6 -2 2 -8 -9 -14 8 -13 24 3 10 10 12 9 9 -3 -2 -9 3
-14 12 -12 10 3 9 -3 -5 -19 -11 -12 -14 -19 -7 -15 7 4 15 1 18 -8 3 -9 16
-16 28 -16 16 0 18 -2 7 -9 -8 -5 -10 -14 -5 -22 11 -18 12 -69 2 -75 -5 -3
-4 -12 3 -20 8 -10 8 -14 0 -14 -6 0 -11 -5 -11 -11 0 -5 4 -8 8 -5 5 3 9 -1
9 -8 0 -8 -7 -12 -16 -9 -11 3 -12 2 -4 -4 7 -5 11 -19 8 -32 -2 -13 -1 -20 3
-17 4 4 7 12 7 17 0 15 19 10 21 -6 1 -8 -2 -12 -7 -9 -6 3 -8 -5 -5 -20 3
-18 1 -23 -10 -19 -8 3 -14 0 -14 -6 0 -6 10 -11 23 -12 21 -1 21 -1 -3 -8
l-25 -7 25 -7 25 -7 -25 -20 -25 -20 36 14 c28 12 39 12 48 3 9 -9 16 -9 30 0
12 8 22 8 29 1 6 -6 12 -6 16 1 5 8 13 8 26 1 16 -8 18 -7 15 10 -2 11 0 22 4
24 8 6 8 62 -1 71 -3 3 -5 -11 -4 -31 1 -25 -4 -39 -14 -41 -9 -3 -11 -1 -5 4
6 4 10 27 10 51 -1 45 3 49 25 30 12 -11 12 -10 3 2 -6 8 -13 28 -15 43 -4 23
-2 27 10 22 13 -5 13 -2 -2 14 -14 16 -16 23 -6 41 8 15 8 20 1 16 -6 -4 -11
-2 -11 3 0 6 5 11 12 11 9 0 9 3 0 12 -15 15 -16 31 0 22 7 -4 8 -3 4 5 -4 6
-10 48 -12 93 -3 44 -13 103 -23 129 -14 35 -16 51 -7 60 8 9 8 10 -1 5 -6 -3
-15 -1 -19 5 -4 8 -3 9 4 5 7 -4 12 -3 12 3 0 6 6 8 14 5 12 -4 13 1 6 31 -7
32 -6 35 8 23 10 -8 13 -9 9 -1 -4 6 -1 14 5 16 8 3 6 6 -4 6 -10 1 -18 6 -18
12 0 5 6 7 13 3 7 -5 6 0 -3 11 -9 11 -10 16 -2 11 13 -8 17 6 5 18 -13 13
-11 35 3 29 10 -4 12 0 8 11 -4 10 -1 16 7 16 7 0 9 3 6 6 -4 4 -13 1 -21 -5
-13 -11 -13 -8 -5 24 6 20 8 43 5 51 -3 8 0 14 6 14 7 0 6 5 -2 15 -10 12 -10
15 0 15 10 0 10 3 0 15 -10 12 -10 15 0 15 10 0 10 3 1 14 -9 10 -9 16 -1 21
7 4 8 11 1 18 -5 7 -8 37 -7 67 1 30 1 61 -2 68 -3 8 -30 12 -88 12 -80 0 -84
-1 -85 -22 0 -13 -1 -69 -2 -125 -1 -55 -5 -99 -9 -96 -5 2 -8 -1 -8 -6 0 -6
4 -11 9 -11 5 0 8 -8 6 -17 -2 -10 -4 -22 -4 -26 -1 -5 -7 -5 -13 -1 -10 5
-10 4 -1 -6 18 -19 -11 -63 -57 -89 -30 -17 -55 -21 -122 -21 l-84 0 0 28 c1
15 6 30 11 34 7 5 7 8 0 8 -5 0 -11 26 -11 58 -1 38 1 50 6 37 6 -15 9 -16 9
-4 1 9 -2 19 -6 23 -9 9 -9 15 -11 144 l-2 92 -89 0 -90 0 2 -78z m252 -652
c-3 -5 -1 -10 6 -10 7 0 10 -3 6 -6 -9 -9 -28 6 -22 17 4 5 8 9 11 9 3 0 2 -4
-1 -10z m195 -71 c0 -6 -4 -7 -10 -4 -5 3 -10 11 -10 16 0 6 5 7 10 4 6 -3 10
-11 10 -16z m-426 -257 c3 -5 -1 -9 -9 -9 -8 0 -12 4 -9 9 3 4 7 8 9 8 2 0 6
-4 9 -8z"/>
<path d="M3055 2669 c-4 -6 -5 -12 -2 -15 2 -3 7 2 10 11 7 17 1 20 -8 4z"/>
<path d="M3034 2630 c0 -13 4 -16 10 -10 7 7 7 13 0 20 -6 6 -10 3 -10 -10z"/>
<path d="M895 2520 c-3 -5 -1 -10 4 -10 6 0 11 5 11 10 0 6 -2 10 -4 10 -3 0
-8 -4 -11 -10z"/>
<path d="M2846 2507 c3 -10 9 -15 12 -12 3 3 0 11 -7 18 -10 9 -11 8 -5 -6z"/>
<path d="M1285 2450 c-3 -6 1 -7 9 -4 18 7 21 14 7 14 -6 0 -13 -4 -16 -10z"/>
<path d="M1251 2363 c0 -11 3 -13 6 -5 2 6 10 9 15 6 7 -4 8 -2 4 4 -11 18
-26 14 -25 -5z"/>
<path d="M3592 2108 c2 -6 10 -13 16 -14 7 -1 8 0 2 3 -5 2 -8 9 -4 14 3 5 0
9 -6 9 -7 0 -10 -5 -8 -12z"/>
<path d="M3650 2090 c0 -5 5 -10 11 -10 5 0 7 5 4 10 -3 6 -8 10 -11 10 -2 0
-4 -4 -4 -10z"/>
<path d="M1275 2050 c-3 -5 -1 -10 4 -10 6 0 11 5 11 10 0 6 -2 10 -4 10 -3 0
-8 -4 -11 -10z"/>
<path d="M1873 2043 c0 -9 4 -10 14 -2 7 6 13 12 13 14 0 1 -6 2 -13 2 -8 0
-14 -6 -14 -14z"/>
<path d="M1915 2050 c-3 -5 -1 -10 4 -10 6 0 11 5 11 10 0 6 -2 10 -4 10 -3 0
-8 -4 -11 -10z"/>
<path d="M1990 2050 c0 -5 5 -10 10 -10 6 0 10 5 10 10 0 6 -4 10 -10 10 -5 0
-10 -4 -10 -10z"/>
<path d="M3696 1953 c-6 -14 -5 -15 5 -6 7 7 10 15 7 18 -3 3 -9 -2 -12 -12z"/>
<path d="M1520 1856 c0 -2 8 -10 18 -17 15 -13 16 -12 3 4 -13 16 -21 21 -21
13z"/>
<path d="M1730 1836 c0 -2 7 -7 16 -10 8 -3 12 -2 9 4 -6 10 -25 14 -25 6z"/>
<path d="M2020 1810 c0 -6 7 -10 15 -10 8 0 15 2 15 4 0 2 -7 6 -15 10 -8 3
-15 1 -15 -4z"/>
<path d="M2225 1770 c-3 -5 -1 -10 4 -10 6 0 11 5 11 10 0 6 -2 10 -4 10 -3 0
-8 -4 -11 -10z"/>
<path d="M2220 1735 c-9 -10 -9 -15 -1 -15 6 0 11 5 11 11 0 5 5 7 12 3 7 -4
8 -3 4 4 -9 15 -11 15 -26 -3z"/>
<path d="M840 1710 c-9 -6 -10 -10 -3 -10 6 0 15 5 18 10 8 12 4 12 -15 0z"/>
<path d="M901 1694 c0 -11 3 -14 6 -6 3 7 2 16 -1 19 -3 4 -6 -2 -5 -13z"/>
<path d="M2116 1701 c-4 -5 -2 -12 3 -15 5 -4 12 -2 15 3 4 5 2 12 -3 15 -5 4
-12 2 -15 -3z"/>
<path d="M3826 1702 c-3 -6 -1 -14 5 -17 15 -10 25 3 12 16 -7 7 -13 7 -17 1z"/>
<path d="M3866 1701 c-4 -5 -2 -12 3 -15 5 -4 12 -2 15 3 4 5 2 12 -3 15 -5 4
-12 2 -15 -3z"/>
<path d="M1627 1683 c3 -7 6 -13 8 -13 2 0 5 6 8 13 3 8 -1 14 -8 14 -7 0 -11
-6 -8 -14z"/>
<path d="M3750 1690 c0 -5 5 -10 11 -10 5 0 7 5 4 10 -3 6 -8 10 -11 10 -2 0
-4 -4 -4 -10z"/>
</g>
</svg>
